<?xml version="1.0" encoding="UTF-8" standalone="no"?>
<!DOCTYPE svg PUBLIC "-//W3C//DTD SVG 20010904//EN"
              "http://www.w3.org/TR/2001/REC-SVG-20010904/DTD/svg10.dtd">

<svg xmlns="http://www.w3.org/2000/svg"
     width="1.77778in" height="1.77778in"
     viewBox="0 0 128 128">
  <path id="sun"
        fill="white"
        d="M 92.91,90.00
           C 89.27,93.91 85.79,96.79 81.00,99.19
             73.81,102.79 68.81,103.09 61.00,103.00
             43.41,102.79 25.21,84.59 25.00,67.00
             24.91,59.60 25.36,53.89 28.52,47.00
             33.93,35.19 45.82,28.17 58.00,25.46
             94.12,20.47 118.26,62.72 92.91,90.00 Z
           M 26.52,35.01
           C 26.52,35.01 22.28,22.28 22.28,22.28
             22.28,22.28 35.01,26.52 35.01,26.52
             35.01,26.52 26.52,35.01 26.52,35.01 Z
           M 101.48,92.99
           C 101.48,92.99 105.72,105.72 105.72,105.72
             105.72,105.72 92.99,101.48 92.99,101.48
             92.99,101.48 101.48,92.99 101.48,92.99 Z
           M 35.01,101.48
           C 35.01,101.48 22.28,105.72 22.28,105.72
             22.28,105.72 26.52,92.99 26.52,92.99
             26.52,92.99 35.01,101.48 35.01,101.48 Z
           M 92.99,26.52
           C 92.99,26.52 105.72,22.28 105.72,22.28
             105.72,22.28 101.48,35.01 101.48,35.01
             101.48,35.01 92.99,26.52 92.99,26.52 Z
           M 17.00,70.00
           C 17.00,70.00 5.00,64.00 5.00,64.00
             5.00,64.00 17.00,58.00 17.00,58.00
             17.00,58.00 17.00,70.00 17.00,70.00 Z
           M 111.00,58.00
           C 111.00,58.00 123.00,64.00 123.00,64.00
             123.00,64.00 111.00,70.00 111.00,70.00
             111.00,70.00 111.00,58.00 111.00,58.00 Z
           M 70.00,111.00
           C 70.00,111.00 64.00,123.00 64.00,123.00
             64.00,123.00 58.00,111.00 58.00,111.00
             58.00,111.00 70.00,111.00 70.00,111.00 Z
           M 58.00,17.00
           C 58.00,17.00 64.00,5.00 64.00,5.00
             64.00,5.00 70.00,17.00 70.00,17.00
             70.00,17.00 58.00,17.00 58.00,17.00 Z" />
</svg>
