<?xml version="1.0" encoding="UTF-8" standalone="no"?>
<!DOCTYPE svg PUBLIC "-//W3C//DTD SVG 20010904//EN"
              "http://www.w3.org/TR/2001/REC-SVG-20010904/DTD/svg10.dtd">

<svg xmlns="http://www.w3.org/2000/svg"
     width="1.77778in" height="1.77778in"
     viewBox="0 0 128 128">
  <path id="crescent"
        fill="white"
        d="M 55.00,5.00
           C 65.50,2.88 77.08,4.70 87.00,8.62
             95.67,12.03 103.65,17.94 109.70,25.00
             129.85,48.51 128.09,85.33 105.99,106.96
             86.60,125.94 54.76,129.74 32.00,114.64
             26.93,111.28 23.63,108.97 20.00,104.00
             20.00,104.00 32.00,107.76 32.00,107.76
             43.52,110.48 56.30,108.15 66.00,101.21
             92.61,82.17 92.61,45.83 66.00,26.79
             60.98,23.20 55.02,21.00 49.00,19.81
             35.67,17.16 31.77,20.83 20.00,24.00
             27.96,12.98 42.08,7.62 55.00,5.00 Z" />
</svg>
